<svg xmlns="http://www.w3.org/2000/svg" xmlns:xlink="http://www.w3.org/1999/xlink" width="20px" height="20px" viewBox="0 0 20 20" version="1.1">
<g id="surface1">
<path style=" stroke:none;fill-rule:nonzero;fill:#4b55be;fill-opacity:1;" d="M 6.5625 0.15625 C 6.296875 0.15625 6.09375 0.359375 6.09375 0.625 C 6.09375 0.890625 6.296875 1.09375 6.5625 1.09375 L 15 1.09375 C 16.46875 1.09375 17.65625 2.28125 17.65625 3.75 L 17.65625 16.875 C 17.65625 17.140625 17.859375 17.34375 18.125 17.34375 C 18.390625 17.34375 18.59375 17.140625 18.59375 16.875 L 18.59375 3.75 C 18.59375 1.765625 16.984375 0.15625 15 0.15625 Z M 4.0625 2.65625 C 2.9375 2.65625 2.03125 3.5625 2.03125 4.6875 L 2.03125 17.8125 C 2.03125 18.9375 2.9375 19.84375 4.0625 19.84375 L 14.0625 19.84375 C 15.1875 19.84375 16.09375 18.9375 16.09375 17.8125 L 16.09375 6.25 C 16.09375 5.296875 15.71875 4.390625 15.046875 3.703125 C 14.359375 3.03125 13.453125 2.65625 12.5 2.65625 Z M 12.96875 3.640625 C 13.5 3.734375 13.984375 3.984375 14.375 4.375 C 14.765625 4.765625 15.015625 5.25 15.109375 5.78125 L 14.0625 5.78125 C 13.453125 5.78125 12.96875 5.296875 12.96875 4.6875 Z M 5.609375 10.3125 L 12.484375 10.3125 C 12.75 10.3125 12.953125 10.515625 12.953125 10.78125 C 12.953125 11.046875 12.75 11.25 12.484375 11.25 L 5.609375 11.25 C 5.34375 11.25 5.140625 11.046875 5.140625 10.78125 C 5.140625 10.515625 5.34375 10.3125 5.609375 10.3125 Z M 5.609375 12.65625 L 12.484375 12.65625 C 12.75 12.65625 12.953125 12.859375 12.953125 13.125 C 12.953125 13.390625 12.75 13.59375 12.484375 13.59375 L 5.609375 13.59375 C 5.34375 13.59375 5.140625 13.390625 5.140625 13.125 C 5.140625 12.859375 5.34375 12.65625 5.609375 12.65625 Z M 5.640625 15 L 12.515625 15 C 12.78125 15 12.984375 15.203125 12.984375 15.46875 C 12.984375 15.734375 12.78125 15.9375 12.515625 15.9375 L 5.640625 15.9375 C 5.375 15.9375 5.171875 15.734375 5.171875 15.46875 C 5.171875 15.203125 5.375 15 5.640625 15 Z M 5.640625 15 "/>
</g>
</svg>