<svg xmlns="http://www.w3.org/2000/svg" xmlns:xlink="http://www.w3.org/1999/xlink" width="20px" height="20px" viewBox="0 0 20 20" version="1.1">
<defs>
<filter id="alpha" filterUnits="objectBoundingBox" x="0%" y="0%" width="100%" height="100%">
  <feColorMatrix type="matrix" in="SourceGraphic" values="0 0 0 0 1 0 0 0 0 1 0 0 0 0 1 0 0 0 1 0"/>
</filter>
<mask id="mask0">
  <g filter="url(#alpha)">
<rect x="0" y="0" width="20" height="20" style="fill:rgb(0%,0%,0%);fill-opacity:0.34902;stroke:none;"/>
  </g>
</mask>
<clipPath id="clip1">
  <rect x="0" y="0" width="20" height="20"/>
</clipPath>
<g id="surface5" clip-path="url(#clip1)">
<path style=" stroke:none;fill-rule:nonzero;fill:rgb(0%,0%,0%);fill-opacity:1;" d="M 3.300781 18.816406 C 2.953125 18.816406 2.628906 18.679688 2.382812 18.4375 C 2.058594 18.113281 1.929688 17.640625 2.039062 17.199219 L 2.75 14.363281 C 2.808594 14.128906 2.933594 13.917969 3.105469 13.75 L 14.304688 2.519531 C 14.652344 2.175781 15.113281 1.984375 15.605469 1.984375 C 16.09375 1.984375 16.554688 2.175781 16.902344 2.523438 L 18.320312 3.945312 C 18.976562 4.664062 18.957031 5.785156 18.265625 6.480469 L 7.050781 17.71875 C 6.957031 17.8125 6.851562 17.890625 6.738281 17.949219 C 6.652344 17.996094 6.550781 18.035156 6.449219 18.0625 L 3.617188 18.777344 C 3.511719 18.804688 3.40625 18.816406 3.300781 18.816406 Z M 3.300781 18.816406 "/>
</g>
</defs>
<g id="surface1">
<use xlink:href="#surface5" mask="url(#mask0)"/>
<path style=" stroke:none;fill-rule:nonzero;fill:#f2f2f2;fill-opacity:1;" d="M 2.898438 18.417969 C 2.554688 18.417969 2.226562 18.28125 1.980469 18.035156 C 1.660156 17.714844 1.527344 17.242188 1.640625 16.800781 L 2.351562 13.964844 C 2.410156 13.730469 2.53125 13.519531 2.703125 13.351562 L 13.90625 2.121094 C 14.253906 1.773438 14.714844 1.582031 15.203125 1.582031 C 15.695312 1.582031 16.15625 1.773438 16.5 2.121094 L 17.921875 3.546875 C 18.574219 4.265625 18.558594 5.382812 17.867188 6.078125 L 6.648438 17.320312 C 6.558594 17.414062 6.453125 17.492188 6.339844 17.550781 C 6.253906 17.597656 6.152344 17.636719 6.046875 17.664062 L 3.21875 18.378906 C 3.113281 18.402344 3.003906 18.417969 2.898438 18.417969 Z M 2.898438 18.417969 "/>
<path style="stroke:none;fill-rule:nonzero;fill: #4b55be;fill-opacity:1;" d="M 15.304688 6.804688 L 5.789062 16.34375 L 3.671875 14.222656 L 13.1875 4.683594 Z M 15.304688 6.804688 "/>
<path style="stroke:none;fill-rule:nonzero;fill: #ffffff;fill-opacity:1;" d="M 16.945312 4.40625 L 15.578125 3.039062 C 15.371094 2.832031 15.035156 2.832031 14.828125 3.039062 L 13.835938 4.035156 L 15.953125 6.15625 L 16.945312 5.160156 C 17.152344 4.953125 17.152344 4.617188 16.945312 4.40625 "/>
<path style="stroke:none;fill-rule:nonzero;fill: #ffffff;fill-opacity:1;" d="M 13.125 4.746094 L 13.832031 4.035156 L 15.949219 6.15625 L 15.242188 6.867188 Z M 13.125 4.746094 "/>
<path style="stroke:none;fill-rule:nonzero;fill: #ffffff;fill-opacity:1;" d="M 3.015625 17.117188 L 5.84375 16.402344 L 3.726562 14.28125 Z M 3.015625 17.117188 "/>
<path style="stroke:none;fill-rule:nonzero;fill: #4b55be;fill-opacity:1;" d="M 2.898438 17.417969 C 2.820312 17.417969 2.746094 17.386719 2.6875 17.328125 C 2.613281 17.253906 2.582031 17.144531 2.609375 17.042969 L 3.320312 14.207031 C 3.335938 14.152344 3.363281 14.101562 3.40625 14.0625 L 14.613281 2.828125 C 14.773438 2.671875 14.980469 2.582031 15.203125 2.582031 C 15.425781 2.582031 15.636719 2.671875 15.792969 2.828125 L 17.15625 4.195312 C 17.480469 4.519531 17.480469 5.046875 17.15625 5.375 L 5.941406 16.613281 C 5.921875 16.636719 5.894531 16.652344 5.871094 16.667969 C 5.847656 16.679688 5.828125 16.6875 5.800781 16.695312 L 2.972656 17.40625 C 2.949219 17.414062 2.925781 17.417969 2.898438 17.417969 Z M 3.882812 14.433594 L 3.3125 16.703125 L 5.574219 16.132812 L 16.730469 4.949219 C 16.824219 4.859375 16.824219 4.710938 16.730469 4.617188 L 15.367188 3.25 C 15.324219 3.207031 15.265625 3.183594 15.203125 3.183594 C 15.140625 3.183594 15.082031 3.207031 15.039062 3.25 Z M 3.882812 14.433594 "/>
<path style="stroke:none;fill-rule:nonzero;fill: #4b55be;fill-opacity:1;" d="M 3.261719 15.683594 L 2.898438 17.117188 L 4.328125 16.753906 Z M 3.261719 15.683594 "/>
</g>
</svg>