<svg width='16' height='16' viewBox='0 0 16 16' xmlns='http://www.w3.org/2000/svg' xmlns:xlink='http://www.w3.org/1999/xlink'><rect width='16' height='16' stroke='none' fill='#000000' opacity='0'/>
<g transform="matrix(0.5 0 0 0.5 8 8)" >
<g style="" >
<g transform="matrix(1 0 0 1 3 2)" >
<path style="stroke: none; stroke-width: 1; stroke-dasharray: none; stroke-linecap: butt; stroke-dashoffset: 0; stroke-linejoin: miter; stroke-miterlimit: 4; fill: #8c8c8c; fill-rule: nonzero; opacity: 1;" transform=" translate(-15, -14)" d="M 19 6 L 11 6 C 9.895 6 9 6.895 9 8 L 9 20 C 9 21.105 9.895 22 11 22 L 19 22 C 20.105 22 21 21.105 21 20 L 21 8 C 21 6.895 20.105 6 19 6 z M 19 19 L 11 19 L 11 8 L 19 8 L 19 19 z" stroke-linecap="round" />
</g>
<g transform="matrix(1 0 0 1 -3 -2)" >
<path style="stroke: none; stroke-width: 1; stroke-dasharray: none; stroke-linecap: butt; stroke-dashoffset: 0; stroke-linejoin: miter; stroke-miterlimit: 4; fill: #8c8c8c; fill-rule: nonzero; opacity: 1;" transform=" translate(-9, -10)" d="M 13 2 L 5 2 C 3.895 2 3 2.895 3 4 L 3 16 C 3 17.105 3.895 18 5 18 L 7 18 L 7 15 L 5 15 L 5 4 L 15 4 C 15 2.895 14.105 2 13 2 z" stroke-linecap="round" />
</g>
<g transform="matrix(1 0 0 1 3 1.5)" >
<path style="stroke: none; stroke-width: 1; stroke-dasharray: none; stroke-linecap: butt; stroke-dashoffset: 0; stroke-linejoin: miter; stroke-miterlimit: 4; fill: #8c8c8c; fill-rule: nonzero; opacity: 0.3;" transform=" translate(-15, -13.5)" d="M 10 7 L 20 7 L 20 20 L 10 20 z" stroke-linecap="round" />
</g>
</g>
</g>
</svg>