<?xml version="1.0" encoding="UTF-8"?>
<svg xmlns="http://www.w3.org/2000/svg" xmlns:xlink="http://www.w3.org/1999/xlink" width="20px" height="20px" viewBox="0 0 20 20" version="1.1">
<g id="surface1">
<path style=" stroke:none;fill-rule:nonzero;fill:#4b55be;fill-opacity:1;" d="M 3.804688 19.925781 C 3.804688 19.808594 3.722656 18.859375 3.695312 18.664062 L 3.671875 18.496094 L 4.027344 18.496094 C 4.222656 18.496094 4.378906 18.476562 4.378906 18.457031 C 4.378906 18.433594 4.441406 18.394531 4.511719 18.367188 C 4.667969 18.3125 4.679688 18.246094 4.546875 18.136719 C 4.472656 18.066406 4.378906 18.054688 4.054688 18.054688 L 3.652344 18.054688 L 3.0625 11.121094 C 2.738281 7.300781 2.472656 4.167969 2.472656 4.152344 C 2.476562 4.128906 2.445312 4.113281 2.410156 4.113281 C 2.375 4.113281 2.34375 4.074219 2.34375 4.027344 C 2.34375 3.9375 2.375 3.9375 10 3.9375 C 17.625 3.9375 17.65625 3.9375 17.65625 4.027344 C 17.65625 4.074219 17.628906 4.113281 17.597656 4.113281 C 17.554688 4.113281 17.523438 4.269531 17.488281 4.726562 C 17.457031 5.0625 17.433594 5.410156 17.433594 5.5 L 17.433594 5.664062 L 16.070312 5.664062 L 16.042969 5.777344 C 16.023438 5.863281 16.039062 5.910156 16.113281 5.972656 C 16.203125 6.046875 16.292969 6.058594 16.804688 6.0625 L 17.394531 6.0625 L 17.367188 6.207031 C 17.34375 6.335938 16.195312 19.808594 16.195312 19.941406 C 16.195312 19.992188 15.019531 20 10 20 C 4.128906 20 3.804688 19.996094 3.804688 19.925781 Z M 7.859375 18.441406 C 8.085938 18.253906 8.09375 18.230469 7.980469 18.125 C 7.925781 18.0625 7.757812 18.054688 6.84375 18.054688 L 5.773438 18.054688 L 5.726562 18.160156 C 5.667969 18.28125 5.699219 18.34375 5.84375 18.429688 C 5.996094 18.507812 7.761719 18.523438 7.859375 18.441406 Z M 9.3125 15.402344 L 9.886719 14.824219 L 9.28125 14.222656 C 8.675781 13.613281 8.585938 13.558594 8.476562 13.726562 C 8.4375 13.792969 8.472656 13.84375 8.6875 14.0625 C 8.890625 14.265625 8.9375 14.34375 8.9375 14.460938 L 8.9375 14.601562 L 8.039062 14.601562 C 7.160156 14.601562 7.136719 14.597656 6.90625 14.488281 C 6.628906 14.34375 6.476562 14.132812 6.4375 13.828125 C 6.378906 13.390625 6.574219 12.773438 6.925781 12.300781 C 7.089844 12.074219 7.09375 11.96875 6.933594 11.921875 C 6.824219 11.886719 6.71875 12 6.4375 12.476562 C 5.910156 13.359375 5.914062 14.011719 6.441406 14.542969 C 6.835938 14.933594 7.222656 15.042969 8.21875 15.042969 L 8.9375 15.042969 L 8.9375 15.191406 C 8.9375 15.304688 8.890625 15.378906 8.695312 15.574219 C 8.5625 15.707031 8.453125 15.835938 8.453125 15.859375 C 8.453125 15.953125 8.59375 16.058594 8.667969 16.019531 C 8.707031 15.996094 8.996094 15.722656 9.3125 15.402344 Z M 12.96875 14.878906 C 13.46875 14.632812 13.871094 14.09375 13.976562 13.523438 C 14.039062 13.1875 13.894531 12.300781 13.667969 11.640625 C 13.621094 11.507812 13.585938 11.34375 13.585938 11.273438 C 13.585938 11.160156 13.597656 11.152344 13.753906 11.152344 C 13.84375 11.152344 14.070312 11.199219 14.246094 11.261719 L 14.574219 11.371094 L 14.664062 11.28125 C 14.824219 11.128906 14.71875 11.058594 13.867188 10.765625 L 13.074219 10.496094 L 12.554688 11.007812 C 11.929688 11.628906 11.90625 11.660156 12.03125 11.78125 L 12.125 11.875 L 12.46875 11.535156 C 12.769531 11.234375 12.832031 11.195312 12.972656 11.195312 C 13.128906 11.195312 13.136719 11.203125 13.230469 11.453125 C 13.457031 12.046875 13.558594 12.601562 13.558594 13.230469 C 13.5625 13.886719 13.539062 13.960938 13.265625 14.269531 C 13.011719 14.5625 12.953125 14.574219 11.9375 14.601562 C 11.054688 14.625 11.019531 14.628906 10.921875 14.726562 L 10.820312 14.828125 L 10.945312 14.941406 L 11.074219 15.054688 L 11.875 15.035156 C 12.675781 15.023438 12.679688 15.023438 12.96875 14.878906 Z M 9.421875 10.777344 L 9.519531 10.671875 L 9.398438 10.578125 C 9.296875 10.5 9.222656 10.488281 8.800781 10.488281 L 8.320312 10.488281 L 8.320312 10.332031 C 8.320312 10.058594 8.847656 9.101562 9.277344 8.59375 C 9.542969 8.277344 9.761719 8.175781 10.191406 8.152344 C 10.789062 8.113281 11 8.246094 11.667969 9.058594 C 11.980469 9.441406 12.054688 9.503906 12.125 9.46875 C 12.269531 9.390625 12.253906 9.300781 12.027344 9 C 11.609375 8.457031 11.207031 8.066406 10.890625 7.910156 C 10.640625 7.789062 10.554688 7.765625 10.265625 7.765625 C 9.839844 7.765625 9.511719 7.914062 9.152344 8.273438 C 8.875 8.546875 8.410156 9.234375 8.179688 9.703125 C 8.046875 9.972656 8.023438 10 7.898438 10 C 7.769531 10 7.746094 9.972656 7.566406 9.597656 C 7.34375 9.15625 7.265625 9.074219 7.152344 9.199219 C 7.109375 9.238281 7.078125 9.300781 7.078125 9.328125 C 7.078125 9.402344 7.738281 10.710938 7.824219 10.808594 C 7.878906 10.875 7.976562 10.886719 8.605469 10.886719 C 9.300781 10.886719 9.324219 10.878906 9.421875 10.777344 Z M 14.777344 6.019531 C 14.777344 5.996094 14.820312 5.972656 14.867188 5.972656 C 14.992188 5.972656 15.027344 5.855469 14.933594 5.753906 C 14.859375 5.667969 14.792969 5.664062 13.796875 5.664062 C 12.789062 5.664062 12.738281 5.667969 12.652344 5.757812 L 12.558594 5.847656 L 12.660156 5.957031 L 12.757812 6.0625 L 13.769531 6.0625 C 14.410156 6.0625 14.777344 6.042969 14.777344 6.019531 Z M 14.777344 6.019531 "/>
<path style=" stroke:none;fill-rule:nonzero;fill:#3d47b1;fill-opacity:1;" d="M 3.660156 18.289062 C 3.644531 18.097656 3.636719 17.941406 3.640625 17.933594 C 3.652344 17.925781 4.429688 17.910156 4.542969 17.914062 C 4.632812 17.921875 4.824219 18.136719 4.824219 18.234375 C 4.824219 18.375 4.746094 18.480469 4.625 18.511719 C 4.5625 18.53125 4.511719 18.5625 4.511719 18.585938 C 4.511719 18.609375 4.339844 18.628906 4.097656 18.628906 L 3.6875 18.628906 Z M 3.660156 18.289062 "/>
<path style=" stroke:none;fill-rule:nonzero;fill:#3d47b1;fill-opacity:1;" d="M 5.773438 18.585938 C 5.757812 18.558594 5.730469 18.546875 5.707031 18.5625 C 5.652344 18.597656 5.53125 18.402344 5.53125 18.265625 C 5.53125 18.195312 5.558594 18.097656 5.589844 18.039062 C 5.613281 17.988281 5.644531 17.933594 5.652344 17.929688 C 5.65625 17.914062 7.402344 17.910156 8.011719 17.921875 C 8.066406 17.921875 8.226562 18.085938 8.199219 18.113281 C 8.1875 18.128906 8.195312 18.140625 8.222656 18.140625 C 8.296875 18.140625 8.289062 18.363281 8.207031 18.390625 C 8.171875 18.40625 8.152344 18.433594 8.164062 18.453125 C 8.175781 18.46875 8.136719 18.5 8.074219 18.511719 C 8.011719 18.53125 7.964844 18.5625 7.964844 18.585938 C 7.964844 18.644531 5.808594 18.640625 5.773438 18.585938 Z M 5.773438 18.585938 "/>
<path style=" stroke:none;fill-rule:nonzero;fill:#3d47b1;fill-opacity:1;" d="M 12.535156 6.097656 C 12.480469 6.039062 12.433594 5.957031 12.425781 5.90625 C 12.398438 5.777344 12.507812 5.578125 12.625 5.554688 C 12.675781 5.539062 13.238281 5.535156 13.867188 5.539062 L 15.011719 5.554688 L 15.101562 5.671875 C 15.21875 5.828125 15.164062 6.074219 15.007812 6.097656 C 14.957031 6.105469 14.910156 6.132812 14.910156 6.15625 C 14.910156 6.175781 14.441406 6.195312 13.769531 6.195312 C 12.640625 6.195312 12.625 6.195312 12.535156 6.097656 Z M 12.535156 6.097656 "/>
<path style=" stroke:none;fill-rule:nonzero;fill:#3d47b1;fill-opacity:1;" d="M 15.980469 6.105469 C 15.878906 6.023438 15.847656 5.867188 15.898438 5.640625 C 15.914062 5.558594 15.957031 5.554688 16.679688 5.539062 L 17.441406 5.53125 L 17.414062 5.628906 C 17.402344 5.6875 17.390625 5.835938 17.390625 5.964844 L 17.390625 6.195312 L 16.738281 6.195312 C 16.15625 6.191406 16.070312 6.179688 15.980469 6.105469 Z M 15.980469 6.105469 "/>
<path style=" stroke:none;fill-rule:nonzero;fill:#3d47b1;fill-opacity:1;" d="M 1.414062 3.089844 L 1.414062 2.078125 L 3.652344 2.078125 C 5.605469 2.078125 5.886719 2.070312 5.886719 2.011719 C 5.886719 1.960938 5.953125 1.945312 6.21875 1.945312 C 6.480469 1.945312 6.546875 1.960938 6.546875 2.011719 C 6.546875 2.070312 6.960938 2.078125 10 2.078125 C 13.039062 2.078125 13.453125 2.070312 13.453125 2.011719 C 13.453125 1.960938 13.519531 1.945312 13.78125 1.945312 C 14.046875 1.945312 14.113281 1.960938 14.113281 2.011719 C 14.113281 2.070312 14.394531 2.078125 16.347656 2.078125 L 18.585938 2.078125 L 18.585938 4.09375 L 1.414062 4.09375 Z M 1.414062 3.089844 "/>
<path style=" stroke:none;fill-rule:nonzero;fill:rgb(96.078431%,96.862745%,97.254902%);fill-opacity:1;" d="M 8.367188 16.078125 C 8.210938 15.886719 8.246094 15.773438 8.546875 15.460938 L 8.820312 15.175781 L 8.09375 15.175781 C 7.085938 15.175781 6.703125 15.070312 6.308594 14.675781 C 5.800781 14.167969 5.753906 13.4375 6.167969 12.589844 C 6.378906 12.160156 6.664062 11.773438 6.796875 11.742188 C 7.035156 11.679688 7.296875 11.921875 7.230469 12.140625 C 7.210938 12.191406 7.132812 12.328125 7.054688 12.4375 C 6.96875 12.554688 6.84375 12.769531 6.769531 12.925781 C 6.441406 13.632812 6.53125 14.097656 7.042969 14.355469 C 7.265625 14.464844 7.304688 14.46875 8.046875 14.46875 L 8.820312 14.46875 L 8.539062 14.179688 C 8.289062 13.914062 8.265625 13.875 8.292969 13.746094 C 8.324219 13.589844 8.460938 13.453125 8.59375 13.453125 C 8.753906 13.453125 8.921875 13.578125 9.460938 14.128906 C 10.1875 14.867188 10.191406 14.792969 9.390625 15.589844 C 8.832031 16.140625 8.761719 16.195312 8.613281 16.195312 C 8.496094 16.195312 8.433594 16.164062 8.367188 16.078125 Z M 8.367188 16.078125 "/>
<path style=" stroke:none;fill-rule:nonzero;fill:rgb(96.078431%,96.862745%,97.254902%);fill-opacity:1;" d="M 10.828125 15.089844 C 10.671875 14.964844 10.660156 14.703125 10.800781 14.574219 C 10.886719 14.5 10.992188 14.488281 11.808594 14.46875 C 12.820312 14.441406 12.878906 14.429688 13.132812 14.136719 C 13.398438 13.839844 13.429688 13.738281 13.425781 13.230469 C 13.425781 12.890625 13.394531 12.640625 13.308594 12.300781 C 13.179688 11.796875 13.023438 11.328125 12.972656 11.328125 C 12.957031 11.328125 12.792969 11.476562 12.609375 11.660156 C 12.324219 11.953125 12.261719 11.992188 12.121094 11.992188 C 11.863281 11.992188 11.710938 11.742188 11.832031 11.519531 C 11.867188 11.453125 12.132812 11.160156 12.425781 10.875 C 12.824219 10.476562 12.976562 10.355469 13.066406 10.355469 C 13.269531 10.355469 14.746094 10.875 14.835938 10.976562 C 14.9375 11.101562 14.933594 11.242188 14.820312 11.390625 C 14.703125 11.539062 14.542969 11.539062 14.113281 11.394531 C 13.9375 11.332031 13.773438 11.28125 13.757812 11.28125 C 13.738281 11.28125 13.761719 11.394531 13.804688 11.527344 C 13.925781 11.875 14.101562 12.707031 14.136719 13.074219 C 14.207031 13.886719 13.789062 14.671875 13.101562 15.011719 L 12.8125 15.15625 L 11.878906 15.167969 C 10.980469 15.1875 10.945312 15.179688 10.828125 15.089844 Z M 10.828125 15.089844 "/>
<path style=" stroke:none;fill-rule:nonzero;fill:rgb(96.078431%,96.862745%,97.254902%);fill-opacity:1;" d="M 7.769531 10.996094 C 7.65625 10.9375 6.902344 9.46875 6.902344 9.296875 C 6.902344 9.0625 7.207031 8.902344 7.425781 9.023438 C 7.464844 9.042969 7.589844 9.242188 7.695312 9.464844 L 7.894531 9.863281 L 8.097656 9.476562 C 8.859375 8.035156 9.589844 7.476562 10.523438 7.621094 C 11.070312 7.703125 11.53125 8.046875 12.132812 8.835938 C 12.402344 9.1875 12.4375 9.28125 12.367188 9.453125 C 12.304688 9.601562 12.226562 9.644531 12.035156 9.644531 C 11.929688 9.644531 11.847656 9.574219 11.535156 9.195312 C 10.902344 8.425781 10.625 8.234375 10.179688 8.289062 C 9.746094 8.339844 9.457031 8.585938 9.011719 9.269531 C 8.835938 9.546875 8.453125 10.273438 8.453125 10.332031 C 8.453125 10.34375 8.667969 10.355469 8.933594 10.355469 C 9.347656 10.355469 9.429688 10.367188 9.53125 10.445312 C 9.679688 10.566406 9.691406 10.789062 9.546875 10.914062 C 9.457031 11.003906 9.386719 11.011719 8.65625 11.027344 C 8.179688 11.035156 7.824219 11.023438 7.769531 10.996094 Z M 7.769531 10.996094 "/>
<path style=" stroke:none;fill-rule:nonzero;fill:rgb(96.078431%,96.862745%,97.254902%);fill-opacity:1;" d="M 5.886719 1.167969 C 5.886719 0.660156 5.902344 0.226562 5.929688 0.175781 C 5.953125 0.132812 6.035156 0.0742188 6.109375 0.046875 C 6.308594 -0.0234375 13.691406 -0.0234375 13.890625 0.046875 C 13.964844 0.0742188 14.046875 0.132812 14.070312 0.175781 C 14.097656 0.226562 14.113281 0.660156 14.113281 1.167969 L 14.113281 2.078125 L 13.453125 2.078125 L 13.453125 0.664062 L 6.546875 0.664062 L 6.546875 2.078125 L 5.886719 2.078125 Z M 5.886719 1.167969 "/>
</g>
</svg>
